<?xml version="1.0" encoding="UTF-8"?>
<svg id="Layer_1" xmlns="http://www.w3.org/2000/svg" version="1.1" viewBox="0 0 2156.37 2156.37">
  <!-- Generator: Adobe Illustrator 29.4.0, SVG Export Plug-In . SVG Version: 2.1.0 Build 152)  -->
  <defs>
    <style>
      .st0 {
        fill: #6d6e71;
      }

      .st1 {
        fill: #a83e2f;
      }
    </style>
  </defs>
  <g>
    <path d="M422.4,1404.44v-172.73h65.62l20.87,76.94c.84,2.68,1.84,6.33,3.02,10.94,1.17,4.61,2.35,9.43,3.52,14.46,1.17,5.03,2.18,9.55,3.02,13.58h2.01c.67-3.18,1.51-7,2.51-11.44,1.01-4.44,2.09-9.13,3.27-14.08,1.17-4.94,2.26-9.51,3.27-13.7l21.12-76.69h63.86v172.73h-43.75v-73.67c0-7.21.04-14.5.13-21.87.08-7.37.21-14.08.38-20.11.16-6.03.25-10.39.25-13.07h-2.01c-.5,2.51-1.3,6.16-2.39,10.94-1.09,4.78-2.26,9.72-3.52,14.83-1.26,5.12-2.39,9.52-3.39,13.2l-25.14,89.76h-36.21l-25.39-89.76c-.84-3.35-1.85-7.37-3.02-12.07-1.17-4.69-2.31-9.47-3.39-14.33-1.09-4.86-2.05-8.97-2.89-12.32h-2.01c.16,4.36.33,9.68.5,15.97.17,6.29.33,12.82.5,19.61.16,6.79.25,13.2.25,19.23v73.67h-40.98Z"/>
    <path d="M635.35,1404.44l64.87-172.73h54.06l64.87,172.73h-48.02l-10.31-29.92h-68.89l-10.31,29.92h-46.26ZM702.74,1340.83h47.02l-12.32-36.46c-.67-1.84-1.47-4.15-2.39-6.91-.92-2.77-1.85-5.7-2.77-8.8-.92-3.1-1.8-6.24-2.64-9.43-.84-3.18-1.68-5.95-2.51-8.3h-1.76c-.67,3.19-1.63,6.79-2.89,10.81-1.26,4.02-2.51,8.05-3.77,12.07-1.26,4.02-2.39,7.54-3.39,10.56l-12.57,36.46Z"/>
    <path d="M911.42,1407.46c-10.9,0-21.12-.97-30.67-2.89-9.55-1.93-17.98-5.07-25.27-9.43-7.29-4.36-13.04-10.1-17.22-17.22-4.19-7.12-6.29-15.88-6.29-26.27v-2.26c0-.84.08-1.51.25-2.01h43.5c0,.5-.04,1.13-.13,1.89-.09.75-.13,1.38-.13,1.89,0,5.37,1.38,9.68,4.15,12.95,2.77,3.27,6.66,5.62,11.69,7.04,5.03,1.43,10.89,2.14,17.6,2.14,3.69,0,7.12-.16,10.31-.5,3.18-.33,6.03-.92,8.55-1.76,2.51-.84,4.73-1.89,6.66-3.14,1.93-1.26,3.35-2.77,4.27-4.53.92-1.76,1.38-3.81,1.38-6.16,0-3.85-1.47-7.04-4.4-9.55-2.93-2.51-6.88-4.61-11.82-6.29-4.95-1.67-10.52-3.27-16.72-4.78-6.2-1.51-12.66-3.1-19.36-4.78-6.71-1.67-13.16-3.77-19.36-6.29-6.2-2.51-11.78-5.7-16.72-9.55-4.95-3.85-8.89-8.67-11.82-14.46-2.93-5.78-4.4-12.78-4.4-20.99,0-9.05,1.93-16.88,5.78-23.51,3.85-6.62,9.18-12.03,15.97-16.22,6.79-4.19,14.62-7.25,23.51-9.18,8.88-1.93,18.35-2.89,28.41-2.89s19.15,1.01,27.78,3.02c8.63,2.01,16.3,5.15,23.01,9.43,6.7,4.27,11.94,9.64,15.71,16.09,3.77,6.45,5.74,14.21,5.91,23.26v3.02h-43.25v-1.76c0-3.85-1.05-7.25-3.14-10.18-2.1-2.93-5.24-5.28-9.43-7.04-4.19-1.76-9.39-2.64-15.59-2.64s-11.44.59-15.71,1.76c-4.27,1.17-7.54,2.85-9.81,5.03-2.26,2.18-3.39,4.78-3.39,7.79,0,3.69,1.47,6.71,4.4,9.05,2.93,2.35,6.91,4.36,11.94,6.03,5.03,1.68,10.64,3.23,16.85,4.65,6.2,1.43,12.61,2.93,19.23,4.53,6.62,1.59,13.03,3.61,19.23,6.03,6.2,2.43,11.82,5.53,16.85,9.3,5.03,3.77,9.01,8.42,11.94,13.95,2.93,5.53,4.4,12.24,4.4,20.11,0,13.75-3.23,24.81-9.68,33.19-6.45,8.38-15.34,14.5-26.65,18.35-11.31,3.85-24.1,5.78-38.34,5.78Z"/>
    <path d="M1097.98,1407.46c-18.94,0-35.16-3.31-48.65-9.93-13.49-6.62-23.85-16.55-31.05-29.79-7.21-13.24-10.81-29.83-10.81-49.78s3.6-36.5,10.81-49.66c7.21-13.16,17.56-23.05,31.05-29.67,13.49-6.62,29.71-9.93,48.65-9.93s35.16,3.31,48.65,9.93c13.49,6.62,23.84,16.51,31.05,29.67,7.2,13.16,10.81,29.71,10.81,49.66s-3.61,36.54-10.81,49.78c-7.21,13.24-17.56,23.17-31.05,29.79-13.49,6.62-29.71,9.93-48.65,9.93ZM1097.98,1372.26c7.21,0,13.58-1.09,19.11-3.27,5.53-2.18,10.18-5.36,13.95-9.55,3.77-4.19,6.58-9.3,8.42-15.34,1.84-6.03,2.77-12.82,2.77-20.37v-11.06c0-7.71-.92-14.58-2.77-20.62-1.85-6.03-4.65-11.15-8.42-15.34-3.77-4.19-8.42-7.37-13.95-9.55-5.53-2.18-11.9-3.27-19.11-3.27s-13.83,1.09-19.36,3.27c-5.53,2.18-10.14,5.37-13.83,9.55-3.69,4.19-6.45,9.3-8.3,15.34-1.85,6.03-2.77,12.91-2.77,20.62v11.06c0,7.54.92,14.33,2.77,20.37,1.84,6.03,4.61,11.15,8.3,15.34,3.68,4.19,8.3,7.38,13.83,9.55,5.53,2.18,11.98,3.27,19.36,3.27Z"/>
    <path d="M1218.66,1404.44v-172.73h39.98l62.86,80.21c1.17,1.34,2.72,3.27,4.65,5.78,1.93,2.51,3.81,5.07,5.66,7.67,1.84,2.6,3.18,4.65,4.02,6.16l1.26-.25v-99.57h41.74v172.73h-39.73l-66.63-84.48c-2.18-2.68-4.23-5.45-6.16-8.3-1.93-2.85-3.48-5.19-4.65-7.04l-1.26.25v99.57h-41.74Z"/>
    <path d="M1416.53,1404.44v-172.73h100.32c12.74,0,23.38,2.39,31.93,7.17s14.96,11.31,19.23,19.61c4.27,8.3,6.41,17.56,6.41,27.78,0,11.06-2.56,20.91-7.67,29.54-5.11,8.64-12.28,15.38-21.5,20.24l34.7,68.39h-50.29l-28.66-60.85h-39.47v60.85h-45.01ZM1461.54,1310.16h46.51c6.2,0,11.19-2.05,14.96-6.16,3.77-4.11,5.66-9.59,5.66-16.47,0-4.53-.84-8.38-2.51-11.57-1.68-3.18-4.02-5.66-7.04-7.42-3.02-1.76-6.71-2.64-11.06-2.64h-46.51v44.25Z"/>
    <path d="M1650.87,1404.44v-68.39l-67.63-104.34h52.05l38.72,64.62h1.26l38.47-64.62h49.28l-66.88,104.34v68.39h-45.26Z"/>
  </g>
  <g>
    <path class="st1" d="M713,1033.93h-125.68c-6.2,0-11.23,5.03-11.23,11.23v54.64c0,6.2,5.03,11.23,11.23,11.23h124.42c2.58-.63,5.12-1.29,7.63-1.99,2.93-2.02,4.84-5.4,4.84-9.24v-54.64c0-6.2-5.03-11.23-11.23-11.23Z"/>
    <path class="st1" d="M637.1,768.54c-2.06-2.58-5.22-4.23-8.78-4.23h-125.68c-6.2,0-11.23,5.03-11.23,11.23v54.64c0,6.2,5.03,11.23,11.23,11.23h46.6c3.6,0,6.73-2.49,7.51-6,1.21-5.42,2.7-10.59,4.48-15.52,5.5-15.26,14.3-27.11,26.38-35.6,12.08-8.47,28.07-12.71,48-12.71h.03c1.57,0,2.44-1.81,1.46-3.04Z"/>
    <path class="st1" d="M550.14,1033.93h-94.43c-4.96,0-7.76,5.65-4.81,9.62,15.76,21.21,35.91,37.98,60.43,50.31,11.82,5.95,24.61,10.85,38.38,14.71,5.59,1.57,11.35-2.42,11.64-8.22,0-.19.01-.37.01-.56v-54.64c0-6.2-5.03-11.23-11.23-11.23Z"/>
    <path class="st1" d="M476.69,830.18v-54.64c0-6.2-5.03-11.23-11.23-11.23h-28.6c-11.87,22.06-19.9,47.76-24.1,77.09h52.7c6.2,0,11.23-5.03,11.23-11.23Z"/>
    <path class="st1" d="M424.46,931.28h123.42c3.24,0,5.78-2.78,5.5-6.01-.09-1.01-.16-2.05-.23-3.1-.19-3.13-.24-6.08-.19-8.83v-40.68c-.05-2.82,0-5.87.2-9.1.09-1.42.2-2.79.33-4.13.28-2.81-1.92-5.24-4.75-5.24h-124.28c-6.2,0-11.23,5.03-11.23,11.23v54.64c0,6.2,5.03,11.23,11.23,11.23Z"/>
    <path class="st1" d="M476.69,1009.93v-54.64c0-6.2-5.03-11.23-11.23-11.23h-45.53c-3.81,0-6.72,3.42-6.09,7.18,4.18,24.9,11.25,47.12,21.21,66.67,0,.01.01.02.02.03,1.01,1.98,3.05,3.22,5.28,3.22h25.12c6.2,0,11.23-5.03,11.23-11.23Z"/>
    <path class="st1" d="M634.33,1014.41c-19.07,0-34.54-4.23-46.41-12.71-11.87-8.47-20.66-20.34-26.38-35.6-1.65-4.4-3.06-8.99-4.23-13.78-1.19-4.85-5.56-8.26-10.56-8.26h-44.12c-6.2,0-11.23,5.03-11.23,11.23v54.64c0,6.2,5.03,11.23,11.23,11.23h125.68c2.92,0,5.57-1.11,7.57-2.94,1.47-1.35.48-3.81-1.51-3.81h-.04Z"/>
    <path class="st1" d="M587.32,751.53h125.68c6.2,0,11.23-5.03,11.23-11.23v-54.64s0-.06,0-.08c-.03-3.87-2.69-7.23-6.41-8.3-1.32-.38-2.65-.75-3.99-1.11-4.33-1.16-8.79-1.73-13.27-1.73h-113.23c-6.2,0-11.23,5.03-11.23,11.23v54.64c0,6.2,5.03,11.23,11.23,11.23Z"/>
    <path class="st1" d="M750.18,751.53h65.89c2.03,0,3.28-2.21,2.25-3.96,0,0,0-.01-.01-.02-1.73-2.94-6.16-10.39-18.87-23.45-.61-.63-1.05-1.07-1.15-1.17-5.62-5.65-23.33-22.4-51.12-34.94-.48-.22-.94-.42-1.4-.62-3.21-1.42-6.82.93-6.82,4.44v48.5c0,6.2,5.03,11.23,11.23,11.23Z"/>
    <path class="st1" d="M817.13,830.18c0,6.2,5.03,11.23,11.23,11.23h10.28c4.23,0,7.56-3.61,7.22-7.83-1.89-24.11-7.2-45.73-15.92-64.85-1.47-3.22-5.54-4.28-8.36-2.14-2.7,2.05-4.45,5.3-4.45,8.95v54.64Z"/>
    <path class="st1" d="M841.88,944.06h-13.52c-6.2,0-11.23,5.03-11.23,11.23v54.64c0,6.2,5.03,11.23,11.23,11.23.64,0,1.22-.37,1.49-.95,9.54-20.82,15.01-44.66,16.43-71.52.13-2.52-1.88-4.62-4.4-4.62Z"/>
    <path class="st1" d="M791.18,944.06h-66.37c-4.53,0-8.42,3.29-9.11,7.77-1.44,9.34-4.08,17.8-7.94,25.39-6.15,12.08-15.26,21.29-27.33,27.65-6.03,3.18-12.89,5.56-20.56,7.15-2.99.62-4,4.42-1.69,6.41,1.97,1.7,4.53,2.72,7.33,2.72h125.68c6.2,0,11.23-5.03,11.23-11.23v-54.64c0-6.2-5.03-11.23-11.23-11.23Z"/>
    <path class="st1" d="M802.4,775.54c0-6.2-5.03-11.23-11.23-11.23h-125.68c-3.53,0-6.68,1.63-8.74,4.18-1.62,2-.54,5,1.96,5.6,7.11,1.7,13.49,4.25,19.15,7.66,11.23,6.79,19.81,16.32,25.75,28.61,3.17,6.58,5.5,13.82,6.97,21.74,1.01,5.4,5.71,9.31,11.2,9.31h69.38c6.2,0,11.23-5.03,11.23-11.23v-54.64Z"/>
    <path class="st1" d="M461.71,751.53h88.43c6.2,0,11.23-5.03,11.23-11.23v-54.64s0-.08,0-.13c-.06-5.75-5.64-9.83-11.18-8.29-33.68,9.34-61.47,24.89-83.35,46.66-4.24,4.21-8.24,8.65-12.01,13.3-4.65,5.75-.51,14.33,6.89,14.33Z"/>
    <path class="st1" d="M818.78,1033.93h-68.6c-6.2,0-11.23,5.03-11.23,11.23v54.64c0,.21,0,.43,0,.65-.02,1.04,1.03,1.77,2,1.38,3.07-1.21,6.2-2.52,9.08-3.83,14.27-6.45,32.2-15.35,54.46-39.07,9.5-10.13,14.63-18.65,16.27-21.47,0-.02.02-.03.03-.05.9-1.54-.22-3.48-2.01-3.48Z"/>
    <path class="st1" d="M956.48,751.53h82.23c6.2,0,11.23-5.03,11.23-11.23v-54.64c0-6.2-5.03-11.23-11.23-11.23h-54.2c-4.17,0-7.9,2.61-9.33,6.53l-23.33,63.95c-1.17,3.22,1.21,6.62,4.63,6.62Z"/>
    <path class="st1" d="M922.25,841.4h31.79c6.2,0,11.23-5.03,11.23-11.23v-54.64c0-6.2-5.03-11.23-11.23-11.23h-5.43c-2.3,0-4.35,1.44-5.14,3.6l-24.9,68.24c-.93,2.56.96,5.26,3.68,5.26Z"/>
    <path class="st1" d="M893.76,931.28s.07,0,.11,0h113.09c5.15,0,9.7-3.38,11.18-8.32l12.23-40.78c.14-.42.27-.85.4-1.28,2.04-6.45,4.09-13.15,6.13-20.11.97-3.3-1.5-6.61-4.94-6.61h-115.28c-3.27,0-6.19,2.06-7.3,5.14-7.44,20.73-14.87,41.46-22.31,62.19-1.68,4.68,1.71,9.72,6.69,9.77Z"/>
    <path class="st1" d="M1078.12,860.8c2.05,6.96,4.09,13.66,6.13,20.11.14.43.27.85.4,1.28l12.23,40.78c1.48,4.94,6.02,8.32,11.18,8.32h113.09s.07,0,.11,0c4.97-.05,8.36-5.09,6.69-9.77-7.44-20.73-14.87-41.46-22.31-62.19-1.1-3.08-4.03-5.14-7.3-5.14h-115.28c-3.44,0-5.91,3.31-4.94,6.61Z"/>
    <path class="st1" d="M860.53,1021.15h93.5c6.2,0,11.23-5.03,11.23-11.23v-54.64c0-6.2-5.03-11.23-11.23-11.23h-66.26c-5.15,0-9.76,3.22-11.52,8.06l-21.94,60.14c-1.58,4.32,1.62,8.89,6.22,8.89Z"/>
    <path class="st1" d="M1142.85,955.29v54.64c0,6.2,5.03,11.23,11.23,11.23h105.43c3.89,0,6.59-3.86,5.26-7.51l-22.42-61.45c-1.78-4.88-6.42-8.13-11.62-8.13h-76.65c-6.2,0-11.23,5.03-11.23,11.23Z"/>
    <path class="st1" d="M1142.85,775.54v54.64c0,6.2,5.03,11.23,11.23,11.23h35.71c5.9,0,10-5.86,7.98-11.41l-21.51-58.95c-1.48-4.05-5.32-6.74-9.63-6.74h-12.55c-6.2,0-11.23,5.03-11.23,11.23Z"/>
    <path class="st1" d="M1075.89,751.53h79.47c6.69,0,11.35-6.66,9.06-12.94l-20.7-56.74c-1.62-4.45-5.86-7.41-10.6-7.41h-57.22c-6.2,0-11.23,5.03-11.23,11.23v54.64c0,6.2,5.03,11.23,11.23,11.23Z"/>
    <path class="st1" d="M1128.12,829.46v-53.21c0-6.6-5.35-11.94-11.94-11.94h-124.24c-6.6,0-11.94,5.35-11.94,11.94v53.21c0,6.6,5.35,11.94,11.94,11.94h44.49c3.57,0,6.72-2.38,7.69-5.82,1.26-4.45,2.51-8.83,3.73-13.15,2.46-8.73,4.5-16.61,6.13-23.64.33-1.42,1.59-2.43,3.05-2.43h.12c1.46,0,2.74.97,3.13,2.37,1.52,5.38,3.2,11.47,5.05,18.29,1.45,5.39,3.98,14.87,5.41,20.29.64,2.41,2.82,4.09,5.32,4.09h40.12c6.6,0,11.94-5.35,11.94-11.94Z"/>
    <path class="st1" d="M1274.03,1039.03c-1.12-3.06-4.03-5.1-7.29-5.1h-27.99c-6.2,0-11.23,5.03-11.23,11.23v54.64c0,6.2,5.03,11.23,11.23,11.23h52.01c4.63,0,7.85-4.6,6.26-8.95l-23-63.04Z"/>
    <path class="st1" d="M1201.57,1033.93h-62.28c-5.81,0-9.84,5.79-7.83,11.24l1.78,4.84h.1l.43,1.43,15.38,51.45c1.44,4.83,5.89,8.14,10.93,8.14h41.49c6.2,0,11.23-5.03,11.23-11.23v-54.64c0-6.2-5.03-11.23-11.23-11.23Z"/>
    <path class="st1" d="M973.7,1033.93h-60.66c-6.2,0-11.23,5.03-11.23,11.23v54.64c0,6.2,5.03,11.23,11.23,11.23h40.13c5.19,0,9.76-3.4,11.24-8.37l12.76-42.68,2.98-9.98h.13l1.56-5.02c1.71-5.49-2.39-11.06-8.13-11.06Z"/>
    <path class="st1" d="M875.85,1033.93h-24.52c-2.96,0-5.6,1.85-6.62,4.63l-23.6,64.7c-1.38,3.77,1.42,7.77,5.44,7.77h49.31c6.2,0,11.23-5.03,11.23-11.23v-54.64c0-6.2-5.03-11.23-11.23-11.23Z"/>
    <rect class="st1" x="979.99" y="944.06" width="148.13" height="77.09" rx="11.23" ry="11.23"/>
    <path class="st1" d="M1315.44,931.28h48.99c6.2,0,11.23-5.03,11.23-11.23v-54.64c0-6.2-5.03-11.23-11.23-11.23h-48.74c-4.16,0-7.53,3.37-7.53,7.53v62.29c0,4.02,3.26,7.28,7.28,7.28Z"/>
    <path class="st1" d="M1316.72,841.4h125.68c6.2,0,11.23-5.03,11.23-11.23v-54.64c0-6.2-5.03-11.23-11.23-11.23h-125.68c-3.43,0-6.5,1.54-8.56,3.97v69.16c2.06,2.43,5.13,3.97,8.56,3.97Z"/>
    <path class="st1" d="M1736.29,944.06h-93.86c-6.2,0-11.23,5.03-11.23,11.23v54.64c0,6.2,5.03,11.23,11.23,11.23h94.09c3.91,0,7.08-3.17,7.08-7.08v-62.71c0-4.03-3.27-7.3-7.3-7.3Z"/>
    <path class="st1" d="M1738.35,1033.93h-11.24c-6.2,0-11.23,5.03-11.23,11.23v54.64c0,6.2,5.03,11.23,11.23,11.23h9.84c3.67,0,6.65-2.98,6.65-6.65v-65.2c0-2.9-2.35-5.25-5.25-5.25Z"/>
    <path class="st1" d="M1401.39,751.53h93.17l-66.8-77.1h-26.37c-6.2,0-11.23,5.03-11.23,11.23v54.64c0,6.2,5.03,11.23,11.23,11.23Z"/>
    <path class="st1" d="M1375.65,740.3v-54.64c0-6.2-5.03-11.23-11.23-11.23h-56.27v77.1h56.27c6.2,0,11.23-5.03,11.23-11.23Z"/>
    <path class="st1" d="M1736.67,854.18h-9.57c-6.2,0-11.23,5.03-11.23,11.23v54.64c0,6.2,5.03,11.23,11.23,11.23h10.14c3.51,0,6.35-2.84,6.35-6.35v-63.82c0-3.82-3.1-6.92-6.92-6.92Z"/>
    <path class="st1" d="M1364.42,1033.93h-45.01c-6.22,0-11.26,5.04-11.26,11.26v54.76c0,6.12,4.96,11.07,11.07,11.07h45.2c6.2,0,11.23-5.03,11.23-11.23v-54.64c0-6.2-5.03-11.23-11.23-11.23Z"/>
    <path class="st1" d="M1428.16,1033.93h-26.77c-6.2,0-11.23,5.03-11.23,11.23v54.64c0,6.2,5.03,11.23,11.23,11.23h26.52c4.43,0,8.01-3.59,8.01-8.01v-61.32c0-4.29-3.48-7.77-7.77-7.77Z"/>
    <path class="st1" d="M1616.47,1009.93v-54.64c0-6.2-5.03-11.23-11.23-11.23h-116.99c-4.02,0-6.17,4.74-3.52,7.77,19,21.71,37.99,43.42,56.99,65.13,2.34,2.67,5.71,4.2,9.26,4.2h54.26c6.2,0,11.23-5.03,11.23-11.23Z"/>
    <path class="st1" d="M1468.35,775.54v54.64c0,6.2,5.03,11.23,11.23,11.23h92.67c-3.34-4.09-6.18-7.45-8.55-10.07l-58.07-67.02h-26.06c-6.2,0-11.23,5.03-11.23,11.23Z"/>
    <path class="st1" d="M1427.4,944.06h-110.69s-.07,0-.1,0c-4.71.04-8.46,3.97-8.46,8.68v59.74c0,4.71,3.75,8.63,8.46,8.68.03,0,.07,0,.1,0h107.41c6.52,0,11.8-5.28,11.8-11.8v-56.77c0-4.71-3.82-8.53-8.53-8.53Z"/>
    <path class="st1" d="M1689.92,1033.93h-125.67s-.04,0-.07,0c-2.95.02-4.47,3.55-2.53,5.77l57.08,65.14c3.45,3.94,8.43,6.2,13.67,6.2h57.52c6.2,0,11.23-5.03,11.23-11.23v-54.64c0-6.2-5.03-11.23-11.23-11.23Z"/>
    <path class="st1" d="M1401.39,854.18c-6.2,0-11.23,5.03-11.23,11.23v54.64c0,6.2,5.03,11.23,11.23,11.23h125.68c6.2,0,11.23-5.03,11.23-11.23v-54.64c0-6.2-5.03-11.23-11.23-11.23h-125.68Z"/>
    <path class="st1" d="M1564.25,854.18c-6.2,0-11.23,5.03-11.23,11.23v54.64c0,6.2,5.03,11.23,11.23,11.23h125.68c6.2,0,11.23-5.03,11.23-11.23v-54.64c0-6.2-5.03-11.23-11.23-11.23h-125.68Z"/>
    <path class="st1" d="M1736.62,674.43h-49.3c-6.2,0-11.23,5.03-11.23,11.23v54.64c0,6.2,5.03,11.23,11.23,11.23h47.7c4.74,0,8.57-3.84,8.57-8.57v-61.55c0-3.85-3.12-6.98-6.98-6.98Z"/>
    <path class="st1" d="M1624.5,841.4h110.54s.07,0,.1,0c4.71-.04,8.46-3.97,8.46-8.68v-59.74c0-4.71-3.75-8.63-8.46-8.68-.03,0-.07,0-.1,0h-110.54c-4.79,0-8.68,3.88-8.68,8.68v59.74c0,4.79,3.88,8.68,8.68,8.68Z"/>
    <path class="st1" d="M1624.87,751.53h25.49c6.2,0,11.23-5.03,11.23-11.23v-54.64c0-6.2-5.03-11.23-11.23-11.23h-26.76c-4.3,0-7.78,3.48-7.78,7.78v60.27c0,5,4.05,9.05,9.05,9.05Z"/>
  </g>
  <rect class="st0" x="369.98" y="1154.22" width="1416.42" height="38.3"/>
  <rect class="st0" x="369.98" y="1443.64" width="1416.42" height="38.3"/>
</svg>